# xmcd
# 
# Track frame offsets:
#     150
#     23579
#     48685
#     69511
#     95113
#     117547
#     139162
#     161203
# 
# Disc length: 2361
# 
# Revision: 0
# Processed by: cddbd v1.5.2PL0 Copyright (c) Steve Scherf et al.
# Submitted via: fre:ac v1.0.31
# 
DISCID=75093708
DTITLE=矢澤にこ (徳井青空) - ラブライブ! Solo Live! III from μ's 矢澤にこ Memories with Nico [Disc 2]
DYEAR=0
DGENRE=
TTITLE0=Shangri-La Shower
TTITLE1=るてしキスキしてる
TTITLE2=ミはμ'sicのミ
TTITLE3=Super LOVE=Super LIVE!
TTITLE4=Angelic Angel
TTITLE5=SUNNY DAY SONG
TTITLE6=僕たちはひとつの光
TTITLE7=?←HEARTBEAT
EXTD=
EXTT0=
EXTT1=
EXTT2=
EXTT3=
EXTT4=
EXTT5=
EXTT6=
EXTT7=
PLAYORDER=
